<?xml version="1.0" encoding="utf-8"?>
<!-- Generator: Adobe Illustrator 16.0.0, SVG Export Plug-In . SVG Version: 6.00 Build 0)  -->
<!DOCTYPE svg PUBLIC "-//W3C//DTD SVG 1.1//EN" "http://www.w3.org/Graphics/SVG/1.1/DTD/svg11.dtd">
<svg version="1.1" id="Calque_1" xmlns="http://www.w3.org/2000/svg" xmlns:xlink="http://www.w3.org/1999/xlink" x="0px" y="0px"
	 width="30.022px" height="29.806px" viewBox="0 0 30.022 29.806" enable-background="new 0 0 30.022 29.806" xml:space="preserve">
<path fill-rule="evenodd" clip-rule="evenodd" d="M15.031,29.35c-7.995,0-14.478-6.448-14.478-14.4S7.036,0.549,15.031,0.549
	S29.508,6.998,29.508,14.95S23.026,29.35,15.031,29.35z M15.031,3.249c-6.486,0-11.763,5.249-11.763,11.701
	c0,6.451,5.277,11.7,11.763,11.7c6.485,0,11.763-5.249,11.763-11.7C26.793,8.497,21.516,3.249,15.031,3.249z M13.686,20.895
	l-0.002-0.004c-0.242,0.221-0.562,0.359-0.915,0.359c-0.75,0-1.357-0.606-1.357-1.352c0-0.395,0.172-0.745,0.443-0.99l-0.002-0.006
	l4.337-3.953l-4.337-3.956l0.002-0.002c-0.271-0.247-0.443-0.597-0.443-0.994c0-0.744,0.608-1.349,1.357-1.349
	c0.353,0,0.672,0.138,0.915,0.358l0.002-0.003l5.429,4.95c0.28,0.256,0.44,0.615,0.44,0.996c0,0.379-0.16,0.738-0.44,0.994
	L13.686,20.895z"/>
</svg>
