<?xml version="1.0" encoding="utf-8"?>
<!-- Generator: Adobe Illustrator 19.2.1, SVG Export Plug-In . SVG Version: 6.00 Build 0)  -->
<svg version="1.1" id="Calque_1" xmlns="http://www.w3.org/2000/svg" xmlns:xlink="http://www.w3.org/1999/xlink" x="0px" y="0px"
	 viewBox="0 0 41.6 41.4" style="enable-background:new 0 0 41.6 41.4;" xml:space="preserve">
<style type="text/css">
	.st0{fill:#A9A8A8;}
</style>
<path class="st0" d="M26,0c-8.6,0-15.6,7-15.6,15.5c0,3.6,1.2,6.9,3.3,9.5L0.6,38.1C0.2,38.5,0,39,0,39.5c0,0.5,0.2,1,0.6,1.4
	C1,41.2,1.5,41.4,2,41.4c0.5,0,1-0.2,1.4-0.6l13.1-13.1c2.6,2,6,3.3,9.6,3.3c8.6,0,15.6-7,15.6-15.5C41.6,7,34.7,0,26,0z M26,27.2
	c-6.5,0-11.7-5.2-11.7-11.7c0-6.4,5.3-11.7,11.7-11.7c6.5,0,11.7,5.2,11.7,11.7C37.7,22,32.5,27.2,26,27.2z"/>
</svg>
