<svg xmlns="http://www.w3.org/2000/svg" width="30.022" height="29.806" viewBox="0 0 30.022 29.806"><path fill-rule="evenodd" clip-rule="evenodd" d="M15.031 29.35C7.036 29.35.553 22.902.553 14.95S7.036.549 15.031.549 29.508 6.998 29.508 14.95s-6.482 14.4-14.477 14.4zm0-26.101c-6.486 0-11.763 5.249-11.763 11.701 0 6.451 5.277 11.7 11.763 11.7 6.485 0 11.763-5.249 11.763-11.7-.001-6.453-5.278-11.701-11.763-11.701zm-1.345 17.646l-.002-.004a1.353 1.353 0 0 1-2.272-.993c0-.395.172-.745.443-.99l-.002-.006 4.337-3.953-4.337-3.956.002-.002a1.337 1.337 0 0 1-.443-.994 1.354 1.354 0 0 1 2.272-.991l.002-.003 5.429 4.95a1.346 1.346 0 0 1 0 1.99l-5.429 4.952z"/></svg>